<svg width="128" height="107" viewBox="0 0 128 107" fill="none" xmlns="http://www.w3.org/2000/svg">
<path d="M89.9091 100.273V89.9093C89.9091 84.4121 87.7253 79.14 83.8382 75.2529C79.9511 71.3658 74.679 69.182 69.1818 69.182H27.7273C22.2301 69.182 16.958 71.3658 13.0709 75.2529C9.18376 79.14 7 84.4121 7 89.9093V100.273" stroke="#023047" stroke-width="12.6666" stroke-linecap="round" stroke-linejoin="round"/>
<path d="M48.4548 48.4545C59.9022 48.4545 69.1821 39.1746 69.1821 27.7273C69.1821 16.2799 59.9022 7 48.4548 7C37.0075 7 27.7275 16.2799 27.7275 27.7273C27.7275 39.1746 37.0075 48.4545 48.4548 48.4545Z" stroke="#023047" stroke-width="12.6666" stroke-linecap="round" stroke-linejoin="round"/>
<path d="M121 100.272V89.9084C120.997 85.3159 119.468 80.8546 116.654 77.2249C113.841 73.5953 109.901 71.0029 105.455 69.8547" stroke="#023047" stroke-width="12.6666" stroke-linecap="round" stroke-linejoin="round"/>
<path d="M84.7275 7.67273C89.1861 8.81429 93.1378 11.4073 95.9598 15.0429C98.7819 18.6785 100.314 23.1499 100.314 27.7523C100.314 32.3546 98.7819 36.8261 95.9598 40.4617C93.1378 44.0973 89.1861 46.6903 84.7275 47.8318" stroke="#023047" stroke-width="12.6666" stroke-linecap="round" stroke-linejoin="round"/>
</svg>
