<svg width="128" height="261" viewBox="0 0 128 261" fill="none" xmlns="http://www.w3.org/2000/svg">
    <path d="M88.9666 57.8513C88.9666 16.8051 69.229 5.13792e-06 28.7227 8.6791e-06C24.3038 9.06541e-06 20.3268 0.446176 17.0863 1.18977C5.15534 4.01539 -6.58345e-06 11.1539 -5.84238e-06 19.6308C-5.0493e-06 28.7026 4.12428 34.0564 12.3728 36.2872C14.1404 36.8821 16.0552 37.1795 17.9701 37.3282C33.2888 39.1128 39.0334 46.1026 39.0334 63.8L39.0334 89.6769C39.0334 111.241 54.0575 124.923 80.8654 127.897L80.8654 133.4C54.0575 136.374 39.0334 150.056 39.0334 171.621L39.0334 197.2C39.0334 215.046 33.2888 222.036 17.9701 223.672C15.908 223.969 13.9931 224.415 12.2256 224.713C3.977 227.092 1.27625e-05 232.446 1.35426e-05 241.369C1.42447e-05 249.4 4.56618 256.39 15.1715 259.364C18.8539 260.405 23.42 261 28.7227 261C69.229 261 88.9666 244.195 88.9666 203.297L88.9666 184.41C88.9666 167.456 95.153 158.831 111.356 155.708C122.255 153.626 128 146.338 128 130.723C128 116.595 122.403 107.523 111.356 105.59C94.8584 102.467 88.9666 93.841 88.9666 76.8872L88.9666 57.8513Z" fill="#292929"/>
</svg>
