<svg xmlns="http://www.w3.org/2000/svg" width="186" height="168" viewBox="0 0 186 168" fill="none">
    <path d="M24.3611 -9.5826e-06C32.0974 -8.90627e-06 36.8708 1.65029 44.7717 4.45579L158.676 48.8487C177.441 55.945 186 67.332 186 84.165C186 100.833 177.276 111.89 158.676 118.821L44.7717 163.544C36.8708 166.515 32.0973 168 24.3611 168C9.3823 168 1.03877e-06 156.118 2.14967e-06 143.411C3.26058e-06 130.703 6.25487 121.957 20.5752 117.666L119.172 85.1552L119.172 83.3399L20.5752 51.4892C6.09028 47.1984 1.14264e-05 37.2967 1.24941e-05 25.0845C1.3605e-05 12.3772 9.38231 -1.08921e-05 24.3611 -9.5826e-06Z" fill="#023047"/>
</svg>
