<svg width="110" height="109" viewBox="0 0 110 109" fill="none" xmlns="http://www.w3.org/2000/svg">
<path d="M55 104C82.3381 104 104.5 81.8381 104.5 54.5C104.5 27.1619 82.3381 5 55 5C27.6619 5 5.5 27.1619 5.5 54.5C5.5 81.8381 27.6619 104 55 104Z" stroke="#023047" stroke-width="9.9" stroke-linecap="round" stroke-linejoin="round"/>
<path d="M40.5957 39.648C41.7595 36.3397 44.0565 33.5501 47.08 31.7732C50.1035 29.9963 53.6582 29.3467 57.1147 29.9396C60.5712 30.5325 63.7063 32.3295 65.9648 35.0124C68.2233 37.6954 69.4594 41.091 69.4542 44.598C69.4542 54.498 54.6042 59.448 54.6042 59.448" stroke="#023047" stroke-width="9.9" stroke-linecap="round" stroke-linejoin="round"/>
<path d="M55 79.25H55.0495" stroke="#023047" stroke-width="9.9" stroke-linecap="round" stroke-linejoin="round"/>
</svg>
