<svg width="270" height="260" viewBox="0 0 270 260" fill="none" xmlns="http://www.w3.org/2000/svg">
    <path d="M44.6647 191.726L35.2086 233.109C34.6051 235.379 34.4039 238.697 34.4039 240.967C34.4039 252.492 43.0551 260 57.9434 260C74.0387 260 83.696 253.015 86.9151 238.348L97.5782 191.726H143.048L133.39 233.109C132.787 235.379 132.586 238.697 132.586 240.967C132.586 252.492 141.237 260 156.125 260C172.221 260 181.878 253.015 185.097 238.173L195.961 191.726H221.311C240.224 191.726 251.692 182.122 251.692 167.105C251.692 155.232 242.235 147.549 226.945 147.549H205.82L214.471 108.959H239.821C258.733 108.959 270 99.3553 270 84.5131C270 72.6394 260.745 65.131 245.253 65.131H224.531L233.383 26.8905C233.987 24.6206 234.188 21.3029 234.188 19.0329C234.188 7.50839 225.537 0 210.648 0C194.553 0 184.896 6.98455 181.677 21.8267L171.617 65.131H126.55L135.201 26.8905C135.805 24.6206 136.207 21.3029 136.207 19.0329C136.207 7.50839 127.355 0 112.466 0C96.3711 0 86.7139 6.98455 83.4948 21.8267L73.234 65.131H48.4873C29.5753 65.131 18.1073 74.7347 18.1073 89.7515C18.1073 101.451 27.5633 109.308 42.854 109.308H63.3756L54.7243 147.898H30.1788C11.2668 147.898 0 157.502 0 172.344C0 184.218 9.25484 191.726 24.7466 191.726H44.6647ZM102.206 152.263L113.271 104.419H166.99L155.723 152.263H102.206Z" fill="#023047"/>
</svg>
    