<svg width="1922" height="1246" viewBox="0 0 1922 1246" fill="none" xmlns="http://www.w3.org/2000/svg">
<path d="M792.175 124.779H629.475C562.028 124.779 512.922 142.036 482.157 176.549C451.392 211.063 436.009 258.313 436.009 318.301C436.009 339.255 438.77 356.512 444.292 370.071C449.814 383.63 461.055 390.409 478.016 390.409C500.104 390.409 512.922 375.412 516.472 345.419C516.867 342.953 517.458 337.201 518.247 328.162C518.642 319.533 519.233 312.96 520.022 308.44C520.289 305.385 520.961 300.715 521.696 295.608C522.049 293.158 522.416 290.608 522.759 288.087C524.194 277.567 527.795 264.494 529.616 257.882L529.854 257.018C531.759 250.087 534.529 243.94 538.009 236.331C542.009 227.587 551.226 219.624 559.509 216.337C560.198 216.064 560.922 215.772 561.681 215.467L561.683 215.466C570.043 212.099 582.487 207.087 596.009 207.087C604.393 205.397 619.904 206.025 633.786 206.586C640.151 206.844 646.174 207.087 651.009 207.087H822.009C909.32 199.087 938.009 183.087 957.834 118.616H970.85C977.555 188.465 1020.9 207.087 1101.76 207.087H1262.76C1278.14 207.087 1302.57 209.634 1315.01 212.337C1326.51 214.837 1335.37 218.39 1343.26 222.087C1351.15 225.785 1358.26 232.587 1363.26 239.837C1367.26 244.003 1369.34 249.442 1371.13 254.122C1372.16 256.828 1373.1 259.281 1374.26 261.087C1376.66 264.704 1377.93 272.325 1379.11 279.42L1379.11 279.421C1379.68 282.803 1380.22 286.066 1380.86 288.718C1383.22 296.935 1384.6 303.509 1385 308.44C1385.79 313.37 1386.57 319.944 1387.36 328.162C1388.15 336.79 1388.74 342.542 1389.14 345.419C1392.69 375.412 1405.31 390.409 1427 390.409C1436.07 390.409 1443.57 388.15 1449.49 383.63C1455.8 379.521 1460.13 373.358 1462.5 365.141C1465.26 357.334 1467.04 349.938 1467.83 342.953C1468.61 336.379 1469.01 328.162 1469.01 318.301C1469.01 257.902 1453.63 210.446 1422.86 175.933C1392.49 141.83 1343.58 124.779 1276.14 124.779H1135.92C1112.25 124.779 1092.53 122.725 1076.75 118.616C1061.37 114.918 1049.74 108.96 1041.85 100.743C1034.35 92.9363 1029.03 85.5406 1025.87 78.5557C1023.11 71.9818 1020.74 63.3534 1018.77 52.6707C1011.28 18.1572 992.938 0.900513 963.75 0.900513C934.957 0.900513 916.814 18.1572 909.32 52.6707C906.953 63.7643 904.192 72.5981 901.037 79.1721C898.276 86.1569 892.951 93.5527 885.063 101.359C877.569 109.577 865.933 115.534 850.156 119.232C834.773 122.93 815.447 124.779 792.175 124.779Z" fill="#ffffff"/>
<path d="M1299.91 516.972H1177.53C1126.8 516.972 1089.86 530.058 1066.72 556.231C1043.58 582.404 1032.01 618.236 1032.01 663.727C1032.01 679.617 1034.09 692.704 1038.24 702.986C1042.39 713.268 1050.85 718.409 1063.61 718.409C1080.22 718.409 1089.86 707.036 1092.53 684.291C1092.83 682.422 1093.27 678.059 1093.87 671.205C1094.16 664.661 1094.61 659.676 1095.2 656.249C1095.5 652.821 1096.54 647.836 1098.32 641.293C1100.1 634.75 1102.17 629.608 1104.55 625.87C1106.92 622.13 1110.48 617.768 1115.23 612.783C1119.68 607.798 1125.02 603.903 1131.25 601.099C1137.48 598.606 1145.34 596.425 1154.83 594.556C1164.03 592.686 1174.41 591.751 1185.99 591.751H1324.83C1386.24 591.751 1419.47 565.267 1424.51 512.298H1434.3C1439.35 565.267 1472.28 591.751 1533.1 591.751H1655.03C1666.6 591.751 1677.14 592.686 1686.63 594.556C1696.12 596.425 1703.84 598.762 1709.77 601.566C1716 604.37 1721.34 608.109 1725.79 612.783C1730.54 617.768 1734.1 622.13 1736.47 625.87C1739.14 629.92 1741.22 635.061 1742.7 641.293C1744.48 647.524 1745.52 652.51 1745.82 656.249C1746.41 659.988 1747 664.973 1747.6 671.205C1748.19 677.748 1748.64 682.11 1748.93 684.291C1751.6 707.036 1761.1 718.409 1777.41 718.409C1784.24 718.409 1789.87 716.696 1794.32 713.268C1799.07 710.152 1802.33 705.479 1804.11 699.247C1806.19 693.327 1807.53 687.718 1808.12 682.422C1808.71 677.436 1809.01 671.205 1809.01 663.727C1809.01 617.924 1797.44 581.936 1774.3 555.764C1751.45 529.902 1714.67 516.972 1663.93 516.972H1558.46C1540.66 516.972 1525.83 515.414 1513.96 512.298C1502.39 509.494 1493.64 504.976 1487.71 498.744C1482.07 492.824 1478.06 487.216 1475.69 481.919C1473.61 476.933 1471.83 470.39 1470.35 462.289C1464.71 436.116 1450.92 423.03 1428.96 423.03C1407.31 423.03 1393.66 436.116 1388.02 462.289C1386.24 470.702 1384.17 477.401 1381.79 482.386C1379.72 487.683 1375.71 493.292 1369.78 499.212C1364.14 505.443 1355.39 509.961 1343.52 512.765C1331.95 515.57 1317.41 516.972 1299.91 516.972Z" fill="#ffffff"/>
<path d="M231.53 516.972H353.91C371.414 516.972 385.951 515.57 397.521 512.765C409.389 509.961 418.141 505.443 423.777 499.212C429.711 493.292 433.716 487.683 435.793 482.386C438.166 477.401 440.243 470.702 442.023 462.289C447.66 436.116 461.307 423.03 482.965 423.03C504.919 423.03 518.714 436.116 524.351 462.289C525.835 470.39 527.615 476.933 529.692 481.919C532.065 487.216 536.07 492.824 541.707 498.744C547.641 504.976 556.393 509.494 567.963 512.298C579.83 515.414 594.664 516.972 612.465 516.972H717.934C768.666 516.972 805.454 529.902 828.298 555.764C851.439 581.936 863.009 617.924 863.009 663.727C863.009 671.205 862.713 677.436 862.119 682.422C861.526 687.718 860.191 693.327 858.114 699.247C856.334 705.479 853.071 710.152 848.324 713.268C843.874 716.696 838.237 718.409 831.413 718.409C815.096 718.409 805.602 707.036 802.932 684.291C802.635 682.11 802.19 677.748 801.597 671.205C801.004 664.973 800.41 659.988 799.817 656.249C799.52 652.51 798.482 647.524 796.702 641.293C795.218 635.061 793.142 629.92 790.472 625.87C788.098 622.13 784.538 617.768 779.791 612.783C775.341 608.109 770.001 604.37 763.771 601.566C757.837 598.762 750.123 596.425 740.63 594.556C731.136 592.686 720.604 591.751 709.033 591.751H587.099C526.28 591.751 493.348 565.267 488.305 512.298H478.515C473.471 565.267 440.243 591.751 378.831 591.751H239.985C228.415 591.751 218.031 592.686 208.834 594.556C199.34 596.425 191.478 598.606 185.248 601.099C179.018 603.903 173.678 607.798 169.228 612.783C164.481 617.768 160.921 622.13 158.547 625.87C156.174 629.608 154.097 634.75 152.317 641.293C150.537 647.836 149.499 652.821 149.202 656.249C148.608 659.676 148.163 664.661 147.867 671.205C147.273 678.059 146.828 682.422 146.532 684.291C143.862 707.036 134.22 718.409 117.606 718.409C104.848 718.409 96.3931 713.268 92.2396 702.986C88.0861 692.704 86.0094 679.617 86.0094 663.727C86.0094 618.236 97.5798 582.404 120.721 556.231C143.862 530.058 180.798 516.972 231.53 516.972Z" fill="#ffffff"/>
<path d="M51.5076 1171.42C54.7622 1173.86 58.4237 1175.08 62.4919 1175.08C66.5602 1175.08 70.2216 1173.86 73.4762 1171.42C76.7308 1168.98 79.0701 1165.82 80.494 1161.96L112.837 1060.96L145.179 1161.96C146.603 1165.82 148.942 1168.98 152.197 1171.42C155.452 1173.86 159.113 1175.08 163.181 1175.08C167.25 1175.08 170.911 1173.86 174.166 1171.42C177.42 1168.98 179.658 1165.93 180.878 1162.26L224.205 1035.33C224.815 1033.5 225.12 1031.78 225.12 1030.15C225.12 1026.28 223.798 1023.03 221.154 1020.38C218.51 1017.74 215.255 1016.42 211.39 1016.42C208.542 1016.42 205.898 1017.23 203.457 1018.86C201.219 1020.28 199.694 1022.21 198.88 1024.66L163.181 1142.13L127.787 1027.4C126.77 1024.15 124.838 1021.5 121.99 1019.47C119.346 1017.43 116.295 1016.42 112.837 1016.42C109.379 1016.42 106.226 1017.43 103.378 1019.47C100.734 1021.5 98.9028 1024.15 97.8857 1027.4L62.4919 1142.13L26.793 1024.66C25.9793 1022.21 24.352 1020.28 21.9111 1018.86C19.6735 1017.23 17.1309 1016.42 14.2831 1016.42C10.4183 1016.42 7.16365 1017.74 4.51928 1020.38C1.87492 1023.03 0.552734 1026.28 0.552734 1030.15C0.552734 1031.78 0.857854 1033.5 1.46809 1035.33L44.795 1162.26C46.0155 1165.93 48.253 1168.98 51.5076 1171.42Z" fill="#ffffff"/>
<path fill-rule="evenodd" clip-rule="evenodd" d="M266.969 1155.55C281.005 1169.59 300.431 1176.6 325.247 1176.6C337.452 1176.6 347.419 1175.49 355.149 1173.25C362.879 1171.01 370.71 1167.65 378.643 1163.18C383.932 1160.13 386.576 1156.37 386.576 1151.89C386.576 1148.43 385.356 1145.58 382.915 1143.35C380.474 1141.11 377.626 1139.99 374.371 1139.99C372.337 1139.99 370.507 1140.4 368.879 1141.21C362.777 1144.26 356.471 1146.6 349.962 1148.23C343.656 1149.86 336.232 1150.67 327.688 1150.67C311.619 1150.67 299.109 1146.7 290.159 1138.77C281.208 1130.84 275.92 1119.75 274.292 1105.51H377.728C381.999 1105.51 385.356 1104.19 387.797 1101.55C390.441 1098.9 391.763 1095.65 391.763 1091.78C391.763 1077.95 388.915 1065.24 383.22 1053.64C377.524 1041.84 369.184 1032.49 358.2 1025.57C347.216 1018.45 334.197 1014.89 319.145 1014.89C303.075 1014.89 289.548 1018.65 278.564 1026.18C267.58 1033.71 259.443 1043.57 254.154 1055.78C248.866 1067.98 246.221 1081.31 246.221 1095.75C246.221 1121.38 253.137 1141.31 266.969 1155.55ZM356.369 1057.91C361.048 1064.63 363.692 1072.97 364.302 1082.93H274.292C274.903 1072.97 277.445 1064.63 281.92 1057.91C286.395 1051.2 291.989 1046.32 298.702 1043.27C305.414 1040.01 312.229 1038.39 319.145 1038.39C326.061 1038.39 332.875 1040.01 339.588 1043.27C346.3 1046.32 351.894 1051.2 356.369 1057.91Z" fill="#ffffff"/>
<path fill-rule="evenodd" clip-rule="evenodd" d="M456.267 1153.42C471.116 1168.88 488.508 1176.6 508.443 1176.6C521.054 1176.6 532.954 1173.45 544.142 1167.15C555.533 1160.64 564.686 1151.28 571.602 1139.08C578.722 1126.67 582.281 1112.22 582.281 1095.75C582.281 1079.27 578.722 1064.93 571.602 1052.73C564.686 1040.32 555.533 1030.96 544.142 1024.66C532.954 1018.15 521.054 1014.89 508.443 1014.89C488.508 1014.89 471.116 1022.62 456.267 1038.08V963.327C456.267 959.258 454.945 955.902 452.301 953.258C449.656 950.613 446.3 949.291 442.232 949.291C438.367 949.291 435.112 950.715 432.468 953.563C429.824 956.207 428.501 959.462 428.501 963.327V1161.35C428.501 1165.21 429.824 1168.47 432.468 1171.11C435.112 1173.76 438.367 1175.08 442.232 1175.08C446.097 1175.08 449.351 1173.76 451.996 1171.11C454.843 1168.47 456.267 1165.21 456.267 1161.35V1153.42ZM540.785 1136.33C531.632 1145.89 519.529 1150.67 504.476 1150.67C495.119 1150.67 486.271 1148.64 477.931 1144.57C469.794 1140.3 462.573 1134.7 456.267 1127.79V1063.71C462.573 1056.79 469.794 1051.3 477.931 1047.23C486.271 1042.96 495.119 1040.83 504.476 1040.83C519.529 1040.83 531.632 1045.61 540.785 1055.17C549.939 1064.73 554.516 1078.25 554.516 1095.75C554.516 1113.24 549.939 1126.77 540.785 1136.33Z" fill="#ffffff"/>
<path fill-rule="evenodd" clip-rule="evenodd" d="M728.624 1167.15C740.015 1173.45 752.017 1176.6 764.628 1176.6C784.563 1176.6 801.955 1168.88 816.804 1153.42V1161.35C816.804 1165.21 818.126 1168.47 820.77 1171.11C823.618 1173.76 826.974 1175.08 830.839 1175.08C834.704 1175.08 837.959 1173.76 840.603 1171.11C843.247 1168.47 844.57 1165.21 844.57 1161.35V963.327C844.57 959.462 843.247 956.207 840.603 953.563C837.959 950.715 834.704 949.291 830.839 949.291C826.974 949.291 823.618 950.613 820.77 953.258C818.126 955.902 816.804 959.258 816.804 963.327V1038.08C801.955 1022.62 784.563 1014.89 764.628 1014.89C752.017 1014.89 740.015 1018.15 728.624 1024.66C717.437 1030.96 708.283 1040.32 701.164 1052.73C694.248 1064.93 690.789 1079.27 690.789 1095.75C690.789 1112.22 694.248 1126.67 701.164 1139.08C708.283 1151.28 717.437 1160.64 728.624 1167.15ZM794.835 1144.57C786.699 1148.64 777.952 1150.67 768.595 1150.67C753.542 1150.67 741.439 1145.89 732.286 1136.33C723.132 1126.77 718.555 1113.24 718.555 1095.75C718.555 1078.25 723.132 1064.73 732.286 1055.17C741.439 1045.61 753.542 1040.83 768.595 1040.83C777.952 1040.83 786.699 1042.96 794.835 1047.23C803.175 1051.3 810.498 1056.79 816.804 1063.71V1127.79C810.498 1134.7 803.175 1140.3 794.835 1144.57Z" fill="#ffffff"/>
<path fill-rule="evenodd" clip-rule="evenodd" d="M904.025 1155.55C918.06 1169.59 937.486 1176.6 962.303 1176.6C974.507 1176.6 984.475 1175.49 992.204 1173.25C999.934 1171.01 1007.77 1167.65 1015.7 1163.18C1020.99 1160.13 1023.63 1156.37 1023.63 1151.89C1023.63 1148.43 1022.41 1145.58 1019.97 1143.35C1017.53 1141.11 1014.68 1139.99 1011.43 1139.99C1009.39 1139.99 1007.56 1140.4 1005.93 1141.21C999.832 1144.26 993.527 1146.6 987.017 1148.23C980.712 1149.86 973.287 1150.67 964.744 1150.67C948.674 1150.67 936.164 1146.7 927.214 1138.77C918.264 1130.84 912.975 1119.75 911.348 1105.51H1014.78C1019.05 1105.51 1022.41 1104.19 1024.85 1101.55C1027.5 1098.9 1028.82 1095.65 1028.82 1091.78C1028.82 1077.95 1025.97 1065.24 1020.28 1053.64C1014.58 1041.84 1006.24 1032.49 995.256 1025.57C984.271 1018.45 971.253 1014.89 956.2 1014.89C940.131 1014.89 926.604 1018.65 915.619 1026.18C904.635 1033.71 896.499 1043.57 891.21 1055.78C885.921 1067.98 883.277 1081.31 883.277 1095.75C883.277 1121.38 890.193 1141.31 904.025 1155.55ZM993.425 1057.91C998.103 1064.63 1000.75 1072.97 1001.36 1082.93H911.348C911.958 1072.97 914.501 1064.63 918.976 1057.91C923.451 1051.2 929.045 1046.32 935.757 1043.27C942.47 1040.01 949.284 1038.39 956.2 1038.39C963.116 1038.39 969.931 1040.01 976.643 1043.27C983.356 1046.32 988.95 1051.2 993.425 1057.91Z" fill="#ffffff"/>
<path d="M1109.22 1172.03C1112.28 1174.06 1115.63 1175.08 1119.29 1175.08H1122.34C1126.01 1175.08 1129.36 1174.06 1132.41 1172.03C1135.46 1169.79 1137.7 1167.04 1139.13 1163.79L1192.22 1036.86C1193.23 1034.42 1193.74 1032.28 1193.74 1030.45C1193.74 1026.59 1192.42 1023.33 1189.78 1020.69C1187.13 1017.84 1183.88 1016.42 1180.01 1016.42C1177.37 1016.42 1174.83 1017.23 1172.38 1018.86C1170.15 1020.28 1168.52 1022.11 1167.5 1024.35L1120.82 1142.74L1074.14 1024.35C1073.12 1022.11 1071.39 1020.28 1068.95 1018.86C1066.71 1017.23 1064.27 1016.42 1061.63 1016.42C1057.76 1016.42 1054.51 1017.84 1051.86 1020.69C1049.22 1023.33 1047.9 1026.59 1047.9 1030.45C1047.9 1032.28 1048.4 1034.42 1049.42 1036.86L1102.51 1163.79C1103.94 1167.04 1106.17 1169.79 1109.22 1172.03Z" fill="#ffffff"/>
<path fill-rule="evenodd" clip-rule="evenodd" d="M1309.09 1240.99C1311.73 1243.83 1314.99 1245.26 1318.85 1245.26C1322.92 1245.26 1326.28 1243.93 1328.92 1241.29C1331.57 1238.65 1332.89 1235.29 1332.89 1231.22V1153.42C1347.74 1168.88 1365.13 1176.6 1385.06 1176.6C1397.68 1176.6 1409.58 1173.45 1420.76 1167.15C1432.15 1160.64 1441.31 1151.28 1448.22 1139.08C1455.34 1126.67 1458.9 1112.22 1458.9 1095.75C1458.9 1079.27 1455.34 1064.93 1448.22 1052.73C1441.31 1040.32 1432.15 1030.96 1420.76 1024.66C1409.58 1018.15 1397.68 1014.89 1385.06 1014.89C1365.13 1014.89 1347.74 1022.62 1332.89 1038.08V1030.15C1332.89 1026.28 1331.47 1023.03 1328.62 1020.38C1325.97 1017.74 1322.72 1016.42 1318.85 1016.42C1314.99 1016.42 1311.73 1017.74 1309.09 1020.38C1306.45 1023.03 1305.12 1026.28 1305.12 1030.15V1231.22C1305.12 1235.09 1306.45 1238.34 1309.09 1240.99ZM1417.41 1136.33C1408.25 1145.89 1396.15 1150.67 1381.1 1150.67C1371.74 1150.67 1362.89 1148.64 1354.55 1144.57C1346.42 1140.3 1339.19 1134.7 1332.89 1127.79V1063.71C1339.19 1056.79 1346.42 1051.3 1354.55 1047.23C1362.89 1042.96 1371.74 1040.83 1381.1 1040.83C1396.15 1040.83 1408.25 1045.61 1417.41 1055.17C1426.56 1064.73 1431.14 1078.25 1431.14 1095.75C1431.14 1113.24 1426.56 1126.77 1417.41 1136.33Z" fill="#ffffff"/>
<path fill-rule="evenodd" clip-rule="evenodd" d="M1512.26 1171.11C1519.99 1174.77 1528.33 1176.6 1537.28 1176.6C1560.46 1176.6 1579.59 1168.88 1594.64 1153.42V1161.35C1594.64 1165.21 1595.96 1168.47 1598.6 1171.11C1601.25 1173.76 1604.5 1175.08 1608.37 1175.08C1612.23 1175.08 1615.49 1173.76 1618.13 1171.11C1620.98 1168.47 1622.4 1165.21 1622.4 1161.35V1075C1622.4 1064.42 1620.06 1054.66 1615.39 1045.71C1610.91 1036.56 1603.79 1029.13 1594.03 1023.44C1584.47 1017.74 1572.67 1014.89 1558.63 1014.89C1540.73 1014.89 1523.14 1018.55 1505.85 1025.88C1500.56 1028.11 1497.92 1031.98 1497.92 1037.47C1497.92 1040.73 1499.03 1043.47 1501.27 1045.71C1503.51 1047.95 1506.15 1049.07 1509.2 1049.07C1510.22 1049.07 1511.54 1048.86 1513.17 1048.45C1520.49 1046.01 1527.11 1044.18 1533 1042.96C1539.11 1041.74 1546.02 1041.13 1553.75 1041.13C1567.79 1041.13 1578.06 1044.08 1584.57 1049.98C1591.28 1055.88 1594.64 1065.54 1594.64 1078.97V1081.41H1557.72C1534.73 1081.41 1517.24 1085.88 1505.24 1094.83C1493.44 1103.78 1487.54 1115.78 1487.54 1130.84C1487.54 1139.99 1489.78 1148.13 1494.25 1155.25C1498.73 1162.16 1504.73 1167.45 1512.26 1171.11ZM1573.59 1145.79C1565.25 1150.06 1556.6 1152.2 1547.65 1152.2C1536.06 1152.2 1527.72 1149.96 1522.63 1145.48C1517.75 1141.01 1515.31 1135.11 1515.31 1127.79C1515.31 1111.72 1530.66 1103.68 1561.38 1103.68H1594.64V1129.31C1588.94 1135.82 1581.93 1141.31 1573.59 1145.79Z" fill="#ffffff"/>
<path d="M1674.52 1136.33C1674.52 1163.18 1689.37 1176.6 1719.07 1176.6C1728.02 1176.6 1736.46 1174.77 1744.39 1171.11C1749.07 1168.67 1751.41 1165.11 1751.41 1160.43C1751.41 1157.38 1750.29 1154.84 1748.05 1152.81C1745.82 1150.57 1743.27 1149.45 1740.43 1149.45C1739 1149.45 1737.78 1149.55 1736.76 1149.75L1734.32 1150.36C1730.26 1151.59 1726.19 1152.2 1722.12 1152.2C1716.42 1152.2 1711.64 1151.18 1707.78 1149.14C1704.12 1146.91 1702.29 1141.82 1702.29 1133.89V1041.74H1736.76C1740.22 1041.74 1743.07 1040.62 1745.31 1038.39C1747.55 1035.95 1748.66 1033.1 1748.66 1029.84C1748.66 1026.38 1747.55 1023.54 1745.31 1021.3C1743.07 1019.06 1740.22 1017.94 1736.76 1017.94H1702.29V993.533C1702.29 991.906 1701.68 990.482 1700.46 989.262C1699.44 988.041 1698.12 987.431 1696.49 987.431C1694.86 987.431 1693.13 988.346 1691.3 990.177L1649.81 1030.76C1647.97 1032.18 1647.06 1033.91 1647.06 1035.95C1647.06 1037.57 1647.57 1039 1648.58 1040.22C1649.81 1041.23 1651.23 1041.74 1652.86 1041.74H1674.52V1136.33Z" fill="#ffffff"/>
<path d="M1785.84 1171.11C1788.48 1173.76 1791.74 1175.08 1795.6 1175.08C1799.47 1175.08 1802.72 1173.76 1805.37 1171.11C1808.21 1168.47 1809.64 1165.21 1809.64 1161.35V1069.81C1816.76 1060.86 1824.28 1053.74 1832.22 1048.45C1840.35 1043.17 1849.51 1040.52 1859.68 1040.52C1882.05 1040.52 1893.24 1052.93 1893.24 1077.75V1161.35C1893.24 1165.21 1894.56 1168.47 1897.21 1171.11C1899.85 1173.76 1903.11 1175.08 1906.97 1175.08C1910.84 1175.08 1914.09 1173.76 1916.73 1171.11C1919.58 1168.47 1921.01 1165.21 1921.01 1161.35V1074.7C1921.01 1063.71 1918.77 1053.64 1914.29 1044.49C1910.02 1035.33 1903.72 1028.11 1895.38 1022.82C1887.24 1017.54 1877.58 1014.89 1866.39 1014.89C1854.19 1014.89 1843.61 1017.43 1834.66 1022.52C1825.71 1027.61 1817.37 1034.42 1809.64 1042.96V963.327C1809.64 959.462 1808.21 956.207 1805.37 953.563C1802.72 950.715 1799.47 949.291 1795.6 949.291C1791.74 949.291 1788.48 950.715 1785.84 953.563C1783.19 956.207 1781.87 959.462 1781.87 963.327V1161.35C1781.87 1165.21 1783.19 1168.47 1785.84 1171.11Z" fill="#ffffff"/>
</svg>
