<svg width="237" height="215" viewBox="0 0 237 215" fill="none" xmlns="http://www.w3.org/2000/svg">
<g filter="url(#filter0_d_1129_3195)">
<path d="M200.055 3.99999C190.863 3.99999 185.191 5.95479 175.804 9.27797L40.4655 61.8625C18.1699 70.2682 7.99999 83.7564 7.99999 103.695C7.99999 123.439 18.3655 136.536 40.4655 144.747L175.804 197.722C185.191 201.241 190.863 203 200.055 203C217.852 203 229 188.925 229 173.873C229 158.821 221.568 148.461 204.553 143.378L87.4035 104.868L87.4035 102.718L204.553 64.9902C221.764 59.9077 229 48.1788 229 33.7132C229 18.6611 217.852 3.99999 200.055 3.99999Z" fill="#023047"/>
</g>
<defs>
<filter id="filter0_d_1129_3195" x="0" y="0" width="237" height="215" filterUnits="userSpaceOnUse" color-interpolation-filters="sRGB">
<feFlood flood-opacity="0" result="BackgroundImageFix"/>
<feColorMatrix in="SourceAlpha" type="matrix" values="0 0 0 0 0 0 0 0 0 0 0 0 0 0 0 0 0 0 127 0" result="hardAlpha"/>
<feOffset dy="4"/>
<feGaussianBlur stdDeviation="4"/>
<!-- <feComposite in2="hardAlpha" operator="out"/> -->
<feColorMatrix type="matrix" values="0 0 0 0 0 0 0 0 0 0 0 0 0 0 0 0 0 0 0.83 0"/>
<feBlend mode="normal" in2="BackgroundImageFix" result="effect1_dropShadow_1129_3195"/>
<feBlend mode="normal" in="SourceGraphic" in2="effect1_dropShadow_1129_3195" result="shape"/>
</filter>
</defs>
</svg>

