<svg width="50" height="50" viewBox="0 0 180 468" fill="none" xmlns="http://www.w3.org/2000/svg">
<path d="M161.639 -9.5826e-06C153.903 -8.90627e-06 149.129 1.65029 141.228 4.45579L27.3239 48.8487C8.5593 55.945 1.08353e-05 67.332 1.23069e-05 84.165C1.37641e-05 100.833 8.72391 111.89 27.3239 118.821L141.228 163.544C149.129 166.515 153.903 168 161.639 168C176.618 168 186 156.118 186 143.411C186 130.703 179.745 121.957 165.425 117.666L66.8283 85.1552L66.8283 83.3399L165.425 51.4892C179.91 47.1984 186 37.2967 186 25.0845C186 12.3772 176.618 -1.08921e-05 161.639 -9.5826e-06Z" fill="#023047"/>
</svg>
