<svg width="88" height="107" viewBox="0 0 88 107" fill="none" xmlns="http://www.w3.org/2000/svg">
<path d="M53.5 5H14.7C12.1274 5 9.66017 6.02196 7.84106 7.84106C6.02196 9.66017 5 12.1274 5 14.7V92.3C5 94.8726 6.02196 97.3398 7.84106 99.1589C9.66017 100.978 12.1274 102 14.7 102H72.9C75.4726 102 77.9398 100.978 79.7589 99.1589C81.578 97.3398 82.6 94.8726 82.6 92.3V34.1L53.5 5Z" stroke="#023047" stroke-width="9.2" stroke-linecap="round" stroke-linejoin="round"/>
<path d="M53.5 5V34.1H82.6" stroke="#023047" stroke-width="9.2" stroke-linecap="round" stroke-linejoin="round"/>
<path d="M63.1999 58.3499H24.3999" stroke="#023047" stroke-width="9.2" stroke-linecap="round" stroke-linejoin="round"/>
<path d="M63.1999 77.75H24.3999" stroke="#023047" stroke-width="9.2" stroke-linecap="round" stroke-linejoin="round"/>
<path d="M34.0999 38.9496H29.2499H24.3999" stroke="#023047" stroke-width="9.2" stroke-linecap="round" stroke-linejoin="round"/>
</svg>
