<svg width="32" height="30" viewBox="0 0 32 30" fill="none" xmlns="http://www.w3.org/2000/svg">
<path d="M22.8702 18.8679H21.4248L20.9125 18.4048C22.7055 16.4494 23.785 13.9108 23.785 11.1492C23.785 4.99142 18.4608 0 11.8925 0C5.32419 0 0 4.99142 0 11.1492C0 17.307 5.32419 22.2985 11.8925 22.2985C14.8382 22.2985 17.546 21.2864 19.6318 19.6055L20.1258 20.0858V21.4408L29.2739 30L32 27.4443L22.8702 18.8679ZM11.8925 18.8679C7.33676 18.8679 3.65923 15.4202 3.65923 11.1492C3.65923 6.87822 7.33676 3.43053 11.8925 3.43053C16.4483 3.43053 20.1258 6.87822 20.1258 11.1492C20.1258 15.4202 16.4483 18.8679 11.8925 18.8679Z" fill="#666666"/>
</svg>
