<svg width="111" height="357" viewBox="0 0 111 357" fill="none" xmlns="http://www.w3.org/2000/svg">
<path d="M57.9778 93.0105C87.3395 93.0105 111 72.2022 111 46.3799C111 20.5576 87.3395 0 57.9778 0C28.616 0 5.24057 20.5576 5.24057 46.3799C5.24057 72.2022 28.616 93.0105 57.9778 93.0105ZM57.6927 194.796C31.7517 194.796 14.6477 206.328 11.7971 230.897L0.394452 321.902C0.109386 322.152 0.109386 322.905 0.109386 323.657C-1.31594 342.459 11.227 357 35.4576 357C59.118 357 70.8057 347.724 75.9369 327.417L97.3168 243.933C98.7422 238.919 99.3123 233.654 99.3123 228.64C99.3123 207.832 83.3486 194.796 57.6927 194.796Z" fill="#023047"/>
</svg>
