<svg width="216" height="262" viewBox="0 0 216 262" fill="none" xmlns="http://www.w3.org/2000/svg">
<path d="M185.513 261.5C204.692 261.5 215.5 250.941 215.5 232.351V29.6487C215.5 11.059 204.692 0.5 185.513 0.5H140.152C127.823 0.5 120.06 7.48974 120.06 19.5359C120.06 31.5821 127.823 38.7205 140.152 38.7205H163.746V223.279H140.152C127.823 223.279 120.06 230.269 120.06 242.315C120.06 254.362 127.823 261.5 140.152 261.5H185.513Z" fill="#023047"/>
<path d="M30.6061 0.5C11.4267 0.5 0.61927 11.059 0.61927 29.6487L0.61927 232.351C0.61927 250.941 11.4267 261.5 30.6061 261.5H75.9669C88.2965 261.5 96.0596 254.51 96.0596 242.464C96.0596 230.418 88.2965 223.279 75.9669 223.279H52.3732L52.3732 38.7205H75.9669C88.2965 38.7205 96.0596 31.7308 96.0596 19.6846C96.0596 7.63847 88.2965 0.5 75.9669 0.5H30.6061Z" fill="#023047"/>
</svg>
