<svg width="143" height="291" viewBox="0 0 143 291" fill="none" xmlns="http://www.w3.org/2000/svg">
<path d="M43.6076 64.5009C43.6076 18.7368 65.6582 -5.74003e-06 110.911 -9.69618e-06C115.848 -1.01278e-05 120.291 0.497426 123.911 1.3265C137.241 4.47692 143 12.4359 143 21.8872C143 32.0017 138.392 37.9709 129.177 40.4581C127.203 41.1214 125.063 41.453 122.924 41.6188C105.81 43.6085 99.3924 51.4017 99.3924 71.1333L99.3924 99.9846C99.3924 124.027 82.6076 139.282 52.6582 142.598L52.6582 148.733C82.6076 152.05 99.3924 167.304 99.3924 191.347L99.3924 219.867C99.3924 239.764 105.81 247.557 122.924 249.381C125.228 249.713 127.367 250.21 129.342 250.542C138.557 253.195 143 259.164 143 269.113C143 278.067 137.899 285.86 126.051 289.176C121.937 290.337 116.835 291 110.911 291C65.6582 291 43.6076 272.263 43.6076 226.665L43.6076 205.607C43.6076 186.704 36.6962 177.087 18.5949 173.605C6.41771 171.284 -1.11762e-05 163.159 -1.26983e-05 145.749C-1.40754e-05 129.997 6.25315 119.882 18.5949 117.726C37.0253 114.244 43.6076 104.627 43.6076 85.7248L43.6076 64.5009Z" fill="#FFCC4C"/>
</svg>
