<?xml version="1.0" standalone="no"?>
<!DOCTYPE svg PUBLIC "-//W3C//DTD SVG 20010904//EN"
 "http://www.w3.org/TR/2001/REC-SVG-20010904/DTD/svg10.dtd">
<svg version="1.0" xmlns="http://www.w3.org/2000/svg"
 width="750.000000pt" height="750.000000pt" viewBox="0 0 750.000000 750.000000"
 preserveAspectRatio="xMidYMid meet">
<metadata>
Created by potrace 1.14, written by Peter Selinger 2001-2017
</metadata>
<g transform="translate(0.000000,750.000000) scale(0.100000,-0.100000)"
fill="#000000" stroke="none">
<path d="M0 3750 l0 -3750 3750 0 3750 0 0 3750 0 3750 -3750 0 -3750 0 0
-3750z m3813 1571 c47 -11 100 -47 120 -81 9 -14 25 -63 37 -109 45 -177 106
-245 257 -287 47 -14 137 -18 493 -24 399 -6 441 -9 513 -28 214 -59 360 -191
428 -390 30 -87 49 -206 50 -317 1 -91 -1 -110 -22 -152 -30 -60 -71 -84 -142
-85 -98 -1 -137 45 -137 164 -1 89 -21 204 -49 279 -46 121 -147 191 -301 209
-47 6 -254 14 -460 19 -338 8 -382 11 -450 31 -177 51 -280 147 -356 334 -24
59 -38 82 -53 84 -15 3 -22 -4 -27 -25 -29 -128 -53 -179 -125 -257 -61 -66
-108 -96 -204 -127 -68 -22 -79 -22 -400 -18 -181 2 -380 4 -441 3 -143 -1
-240 -24 -302 -72 -57 -43 -65 -53 -96 -117 -33 -71 -46 -130 -61 -287 -13
-145 -23 -173 -71 -205 -33 -21 -110 -21 -151 1 -76 39 -98 100 -90 255 15
312 126 512 342 616 153 74 175 76 655 85 439 8 484 12 572 54 86 41 142 126
173 260 9 38 22 81 30 95 41 79 155 118 268 92z m-1782 -1644 c39 -26 54 -53
75 -135 23 -91 60 -142 129 -177 l59 -30 320 -7 c377 -8 431 -15 544 -72 143
-73 221 -207 242 -419 14 -150 -6 -214 -76 -237 -46 -15 -107 0 -128 33 -8 12
-22 65 -31 117 -27 163 -71 227 -187 272 -49 20 -79 22 -408 28 -340 5 -357 7
-404 28 -124 56 -173 130 -211 315 -3 17 -12 27 -23 27 -15 0 -21 -13 -30 -60
-25 -134 -91 -229 -194 -276 l-63 -29 -350 -6 c-414 -7 -430 -10 -511 -93 -53
-55 -75 -108 -89 -226 -4 -30 -14 -68 -22 -83 -18 -35 -73 -60 -116 -52 -73
14 -97 60 -97 188 0 226 90 397 250 475 109 54 179 63 540 71 311 7 327 8 372
30 68 33 104 78 128 164 42 146 74 177 186 177 47 0 69 -5 95 -23z m3604 7
c43 -20 60 -46 80 -125 22 -83 47 -130 87 -164 67 -57 77 -58 428 -66 235 -5
346 -11 400 -23 245 -52 369 -214 387 -504 9 -149 -27 -208 -126 -206 -67 2
-95 38 -110 142 -18 120 -38 170 -90 222 -79 78 -100 82 -506 89 l-350 6 -63
29 c-109 51 -180 153 -198 286 -6 44 -10 51 -27 48 -16 -2 -23 -16 -33 -67
-19 -91 -57 -163 -113 -213 -88 -79 -99 -81 -496 -88 -192 -4 -364 -12 -380
-17 -137 -45 -191 -118 -215 -291 -14 -100 -30 -129 -81 -142 -53 -15 -101 1
-131 43 -21 29 -23 43 -22 142 1 184 50 312 153 407 121 111 199 128 631 137
368 8 382 11 452 89 33 36 68 119 68 159 0 31 41 91 72 106 43 21 140 22 183
1z"/>
</g>
</svg>
